<svg xmlns="http://www.w3.org/2000/svg" viewBox="0 0 1400 900" role="img" aria-labelledby="title desc">
  <title id="title">Abstract wellness and relationship coaching visual</title>
  <desc id="desc">Lavender, emerald, and gold abstract forms suggesting balance, growth, and connection.</desc>
  <defs>
    <linearGradient id="paper" x1="0" x2="1" y1="0" y2="1">
      <stop offset="0" stop-color="#fbf8ff"/>
      <stop offset=".52" stop-color="#f3ecff"/>
      <stop offset="1" stop-color="#fff9ec"/>
    </linearGradient>
    <radialGradient id="glow" cx="42%" cy="38%" r="58%">
      <stop offset="0" stop-color="#fff9db" stop-opacity=".92"/>
      <stop offset=".48" stop-color="#dec7ff" stop-opacity=".38"/>
      <stop offset="1" stop-color="#dec7ff" stop-opacity="0"/>
    </radialGradient>
    <linearGradient id="emerald" x1="0" x2="1" y1="1" y2="0">
      <stop offset="0" stop-color="#0f6d58"/>
      <stop offset="1" stop-color="#3baa84"/>
    </linearGradient>
    <linearGradient id="gold" x1="0" x2="1" y1="0" y2="1">
      <stop offset="0" stop-color="#e9c66a"/>
      <stop offset=".5" stop-color="#c59b35"/>
      <stop offset="1" stop-color="#fff1ad"/>
    </linearGradient>
    <filter id="soft" x="-20%" y="-20%" width="140%" height="140%">
      <feGaussianBlur stdDeviation="18"/>
    </filter>
  </defs>
  <rect width="1400" height="900" fill="url(#paper)"/>
  <rect width="1400" height="900" fill="url(#glow)"/>
  <path d="M890 128c144 30 257 134 277 256 24 147-91 295-241 344-159 51-353 2-438-117-73-102-51-240 37-338 86-95 224-172 365-145Z" fill="#ede1ff"/>
  <path d="M1000 196c101 57 165 173 145 276-24 127-153 207-280 205-139-2-263-101-286-226-20-109 47-212 139-258 86-43 192-46 282 3Z" fill="#fff6df" opacity=".78"/>
  <path d="M989 173c-109 124-158 262-148 414" fill="none" stroke="#0f6d58" stroke-width="5" stroke-linecap="round"/>
  <path d="M889 350c-123-29-217 8-282 111" fill="none" stroke="#0f6d58" stroke-width="5" stroke-linecap="round" opacity=".72"/>
  <path d="M917 297c-10-83 32-151 124-202 18 93-22 165-124 202Z" fill="url(#emerald)" opacity=".9"/>
  <path d="M839 408c-81-64-167-67-260-9 75 73 161 76 260 9Z" fill="#3baa84" opacity=".72"/>
  <path d="M961 430c93-54 183-43 270 34-93 60-184 49-270-34Z" fill="#0f6d58" opacity=".76"/>
  <path d="M746 564c-93 32-147 96-162 194 101-19 156-84 162-194Z" fill="#2f9276" opacity=".74"/>
  <circle cx="862" cy="474" r="168" fill="none" stroke="url(#gold)" stroke-width="7"/>
  <circle cx="862" cy="474" r="121" fill="none" stroke="#c59b35" stroke-width="2" stroke-dasharray="8 14" opacity=".8"/>
  <path d="M705 491c68-74 157-108 268-101" fill="none" stroke="#c59b35" stroke-width="3" stroke-linecap="round"/>
  <path d="M673 300c32 23 61 48 87 75m-141 1c36 18 70 37 102 57m-149 19c41 10 79 22 116 38" fill="none" stroke="#b596d9" stroke-width="3" stroke-linecap="round" opacity=".82"/>
  <g opacity=".28" filter="url(#soft)">
    <circle cx="215" cy="230" r="110" fill="#dec7ff"/>
    <circle cx="1206" cy="694" r="126" fill="#e9c66a"/>
    <circle cx="438" cy="740" r="96" fill="#3baa84"/>
  </g>
  <path d="M208 642c107-84 228-123 364-116" fill="none" stroke="#dec7ff" stroke-width="20" stroke-linecap="round" opacity=".72"/>
  <path d="M180 700c107-84 231-124 372-119" fill="none" stroke="#fff7e5" stroke-width="18" stroke-linecap="round" opacity=".9"/>
</svg>
